<svg width="128" height="128" viewBox="0 0 128 128" fill="none" xmlns="http://www.w3.org/2000/svg">
<path d="M2.71145 63.234C2.70847 73.9885 5.51852 84.4894 10.8618 93.7451L2.20044 125.369L34.5636 116.883C43.5148 121.756 53.544 124.31 63.7357 124.31H63.7625C97.4071 124.31 124.795 96.9327 124.809 63.2821C124.816 46.976 118.471 31.6428 106.944 20.1069C95.4192 8.57203 80.0914 2.21619 63.76 2.20875C30.1114 2.20875 2.72583 29.5849 2.71194 63.234" fill="url(#paint0_linear_242_4)"/>
<path d="M47.9654 36.7866C46.7816 34.1557 45.5359 34.1026 44.4102 34.0564C43.4884 34.0167 42.4346 34.0197 41.3818 34.0197C40.328 34.0197 38.6159 34.4161 37.1687 35.9963C35.72 37.5779 31.6379 41.4001 31.6379 49.1738C31.6379 56.9481 37.3002 64.4609 38.0895 65.5162C38.8799 66.5694 49.0206 83.0328 65.0812 89.3663C78.4289 94.6297 81.1452 93.5829 84.042 93.3189C86.9394 93.056 93.391 89.4978 94.7072 85.8081C96.0244 82.1189 96.0244 78.9567 95.6295 78.2958C95.2346 77.6375 94.1808 77.242 92.6007 76.4522C91.02 75.6619 83.2517 71.8393 81.8035 71.3119C80.3548 70.785 79.3016 70.5221 78.2478 72.1042C77.194 73.6838 74.1682 77.242 73.2459 78.2958C72.3246 79.3521 71.4023 79.4835 69.8226 78.6932C68.2415 77.9004 63.1527 76.2339 57.1154 70.8515C52.4181 66.6632 49.2469 61.4911 48.3251 59.909C47.4033 58.3293 48.2263 57.473 49.0187 56.6856C49.7286 55.9777 50.5993 54.8406 51.3901 53.9183C52.178 52.9955 52.4409 52.3371 52.9678 51.2833C53.4952 50.2286 53.2312 49.3058 52.8368 48.5155C52.4409 47.7252 49.3704 39.9112 47.9654 36.7871" fill="white"/>
<defs>
<linearGradient id="paint0_linear_242_4" x1="63.5048" y1="125.369" x2="63.5048" y2="2.20875" gradientUnits="userSpaceOnUse">
<stop stop-color="#1FAF38"/>
<stop offset="1" stop-color="#60D669"/>
</linearGradient>
</defs>
</svg>
